<?xml version="1.0" encoding="UTF-8" standalone="no"?>
<!-- Created with Inkscape (http://www.inkscape.org/) -->

<svg
   version="1.1"
   id="svg2"
   width="1415.5817"
   height="605.33331"
   viewBox="0 0 1415.5817 605.33331"
   sodipodi:docname="PPT.svg"
   inkscape:version="1.2.2 (1:1.2.2+202212051552+b0a8486541)"
   xmlns:inkscape="http://www.inkscape.org/namespaces/inkscape"
   xmlns:sodipodi="http://sodipodi.sourceforge.net/DTD/sodipodi-0.dtd"
   xmlns="http://www.w3.org/2000/svg"
   xmlns:svg="http://www.w3.org/2000/svg">
  <defs
     id="defs6">
    <clipPath
       clipPathUnits="userSpaceOnUse"
       id="clipPath18">
      <path
         d="M 0,0 H 1678.2813 V 1260 H 0 Z"
         id="path16" />
    </clipPath>
  </defs>
  <sodipodi:namedview
     id="namedview4"
     pagecolor="#ffffff"
     bordercolor="#000000"
     borderopacity="0.25"
     inkscape:showpageshadow="2"
     inkscape:pageopacity="0.0"
     inkscape:pagecheckerboard="0"
     inkscape:deskcolor="#d1d1d1"
     showgrid="false"
     inkscape:zoom="0.47797619"
     inkscape:cx="542.91407"
     inkscape:cy="394.37111"
     inkscape:window-width="1920"
     inkscape:window-height="1024"
     inkscape:window-x="1920"
     inkscape:window-y="0"
     inkscape:window-maximized="1"
     inkscape:current-layer="g10"
     showguides="false">
    <inkscape:page
       x="0"
       y="0"
       id="page8"
       width="1415.5817"
       height="605.33331" />
  </sodipodi:namedview>
  <g
     id="g10"
     inkscape:groupmode="layer"
     inkscape:label="Page 1"
     transform="matrix(1.3333333,0,0,-1.3333333,-578.85245,775.99998)"
     style="display:inline">
    <path
       id="path38"
       clip-path="none"
       mask="none"
       style="fill:#ff8170;fill-opacity:1;fill-rule:nonzero;stroke:none"
       d="M 0.27949705,7.9500001e-6 90.210315,153.93351 179.71993,7.9500001e-6 Z"
       transform="matrix(1,0,0,-1,913,282)"
       sodipodi:nodetypes="cccc" />
    <path
       id="path42"
       clip-path="none"
       mask="none"
       style="fill:#ffd500;fill-opacity:1;fill-rule:nonzero;stroke:none"
       d="M 6.55928,4.2000001e-6 96.279497,150.00001 H 275.71993 L 365.44015,4.2000001e-6 Z"
       transform="matrix(1,0,0,-1,818.56069,432)" />
    <path
       id="path320"
       clip-path="none"
       mask="none"
       style="fill:#2cd997;fill-opacity:1;fill-rule:nonzero;stroke:none;stroke-width:0.99975;stroke-dasharray:none"
       d="M 15.839063,4.5000003e-7 105.55928,150 H 464.44015 L 554.16037,4.5000003e-7 Z"
       transform="matrix(1,0,0,-1,718,582)" />
    <path
       d="m 434.13935,128 h 345.04343 l 38.83126,75 -38.83126,75 H 434.13935 Z"
       style="display:inline;opacity:1;fill:#ff8170;fill-opacity:1;fill-rule:nonzero;stroke:none;stroke-width:0.744803"
       id="path56" />
    <path
       d="m 634.53328,176.81201 z m 24.408,-0.864 c -4.128,0 -7.824,1.00801 -11.088,3.024 -3.264,2.064 -5.832,5.04 -7.704,8.928 -1.872,3.888 -2.808,8.592 -2.808,14.112 0,5.52 0.936,10.224 2.808,14.112 1.872,3.888 4.44,6.84 7.704,8.856 3.264,2.064 6.96,3.096 11.088,3.096 4.176,0 7.872,-1.032 11.088,-3.096 3.264,-2.016 5.832,-4.968 7.704,-8.856 1.872,-3.888 2.808,-8.592 2.808,-14.112 0,-5.52 -0.936,-10.224 -2.808,-14.112 -1.872,-3.888 -4.44,-6.864 -7.704,-8.928 -3.216,-2.01599 -6.912,-3.024 -11.088,-3.024 z m 0,9.864 c 1.968,0 3.672,0.552 5.112,1.656 1.488,1.104 2.64,2.856 3.456,5.256 0.864,2.4 1.296,5.496 1.296,9.288 0,3.792 -0.432,6.888 -1.296,9.288 -0.816,2.40001 -1.968,4.152 -3.456,5.256 -1.44,1.104 -3.144,1.656 -5.112,1.656 -1.92,0 -3.624,-0.552 -5.112,-1.656 -1.44,-1.104 -2.592,-2.85599 -3.456,-5.256 -0.816,-2.4 -1.224,-5.496 -1.224,-9.288 0,-3.792 0.408,-6.888 1.224,-9.288 0.864,-2.4 2.016,-4.152 3.456,-5.256 1.488,-1.104 3.192,-1.656 5.112,-1.656 z m 25.91606,-9 z m 19.152,-0.864 c -3.504,0 -6.984,0.456 -10.44,1.368 -3.456,0.96 -6.384,2.304 -8.784,4.032 l 4.536,8.928 c 1.92,-1.392 4.152,-2.496 6.696,-3.312 2.544,-0.816 5.112,-1.224 7.704,-1.224 2.92801,0 5.232,0.576 6.912,1.728 1.68,1.152 2.52,2.736 2.52,4.752 0,1.92 -0.744,3.432 -2.232,4.536 -1.488,1.104 -3.88799,1.656 -7.2,1.656 h -5.328 v 7.704 l 14.04,15.912 1.296,-4.17599 h -26.424 v 9.35999 h 35.28 v -7.56 l -13.968,-15.912 -5.904,3.384 h 3.384 c 6.19201,0 10.872,-1.392 14.04,-4.176 3.168,-2.784 4.752,-6.36 4.752,-10.728 0,-2.832 -0.744,-5.496 -2.232,-7.992 -1.488,-2.448 -3.768,-4.43999 -6.83999,-5.976 -3.072,-1.536 -7.00801,-2.304 -11.80801,-2.304 z"
       style="display:inline;fill:#ffffff;fill-opacity:1;fill-rule:nonzero;stroke:none"
       id="path60" />
    <path
       d="M 434.13935,278 H 687.13786 L 721,353 687.13786,428 H 434.13935 Z"
       style="fill:#ffd500;fill-opacity:1;fill-rule:nonzero;stroke:none;stroke-width:0.695518"
       id="path70" />
    <path
       d="m 434.13935,428 h 182.23608 l 28.53809,76.55567 -28.53809,76.55566 H 434.13935 Z"
       style="fill:#2cd997;fill-opacity:1;fill-rule:nonzero;stroke:none;stroke-width:0.645092"
       id="path74" />
    <path
       d="m 540.39265,326.81201 z m 24.408,-0.864 c -4.128,0 -7.82399,1.00801 -11.088,3.024 -3.264,2.064 -5.83199,5.04 -7.704,8.928 -1.872,3.888 -2.808,8.592 -2.808,14.112 0,5.52 0.936,10.224 2.808,14.112 1.87201,3.888 4.44,6.84 7.704,8.856 3.26401,2.064 6.96,3.096 11.088,3.096 4.17601,0 7.87201,-1.032 11.08801,-3.096 3.264,-2.016 5.832,-4.968 7.704,-8.856 1.872,-3.888 2.808,-8.592 2.808,-14.112 0,-5.52 -0.936,-10.224 -2.808,-14.112 -1.872,-3.888 -4.44,-6.864 -7.704,-8.928 -3.216,-2.01599 -6.912,-3.024 -11.08801,-3.024 z m 0,9.864 c 1.96801,0 3.67201,0.552 5.11201,1.656 1.488,1.104 2.64,2.856 3.456,5.256 0.864,2.4 1.29599,5.496 1.29599,9.288 0,3.792 -0.43199,6.888 -1.29599,9.288 -0.816,2.4 -1.968,4.152 -3.456,5.256 -1.44,1.104 -3.144,1.656 -5.11201,1.656 -1.91999,0 -3.62399,-0.552 -5.11199,-1.656 -1.44001,-1.104 -2.592,-2.856 -3.456,-5.256 -0.816,-2.4 -1.224,-5.496 -1.224,-9.288 0,-3.792 0.408,-6.888 1.224,-9.288 0.864,-2.4 2.01599,-4.152 3.456,-5.256 1.488,-1.104 3.192,-1.656 5.11199,-1.656 z m 26.33794,-9 z m 2.376,0 v 7.56 l 19.44,18.36 c 1.536,1.392 2.664,2.64 3.384,3.744 0.72,1.104 1.20001,2.11201 1.44,3.024 0.28801,0.912 0.432,1.752 0.432,2.52 0,2.016 -0.696,3.552 -2.088,4.608 -1.344,1.104 -3.336,1.656 -5.976,1.656 -2.112,0 -4.08,-0.408 -5.904,-1.224 -1.776,-0.816 -3.288,-2.088 -4.536,-3.816 l -8.496,5.472 c 1.92,2.88 4.608,5.16 8.064,6.84 3.456,1.68 7.44,2.52 11.952,2.52 3.744,0 7.008,-0.624 9.792,-1.872 2.832,-1.2 5.016,-2.904 6.55201,-5.112 1.58399,-2.208 2.37599,-4.848 2.37599,-7.92 0,-1.632 -0.216,-3.264 -0.648,-4.896 -0.38399,-1.584 -1.19999,-3.264 -2.448,-5.04 -1.2,-1.776 -2.976,-3.768 -5.328,-5.976 l -16.128,-15.192 -2.232,4.248 h 28.44 v -9.504 z"
       style="fill:#ffffff;fill-opacity:1;fill-rule:nonzero;stroke:none"
       id="path78" />
    <path
       d="m 485.52937,476.81202 z m 24.408,-0.864 c -4.128,0 -7.82399,1.008 -11.088,3.024 -3.264,2.064 -5.832,5.03999 -7.704,8.928 -1.872,3.888 -2.808,8.592 -2.808,14.112 0,5.52 0.936,10.224 2.808,14.112 1.872,3.888 4.44,6.84 7.704,8.856 3.26401,2.064 6.96,3.096 11.088,3.096 4.17601,0 7.87201,-1.032 11.088,-3.096 3.264,-2.016 5.83201,-4.968 7.704,-8.856 1.87201,-3.888 2.80801,-8.592 2.80801,-14.112 0,-5.52 -0.936,-10.224 -2.80801,-14.112 -1.87199,-3.88801 -4.44,-6.864 -7.704,-8.928 -3.21599,-2.016 -6.91199,-3.024 -11.088,-3.024 z m 0,9.864 c 1.968,0 3.672,0.552 5.11201,1.656 1.48799,1.104 2.63999,2.856 3.45599,5.256 0.864,2.4 1.296,5.496 1.296,9.288 0,3.792 -0.432,6.888 -1.296,9.288 -0.816,2.4 -1.968,4.152 -3.45599,5.256 -1.44001,1.104 -3.14401,1.656 -5.11201,1.656 -1.92,0 -3.624,-0.552 -5.112,-1.656 -1.44,-1.104 -2.592,-2.856 -3.456,-5.256 -0.816,-2.4 -1.224,-5.496 -1.224,-9.288 0,-3.792 0.408,-6.888 1.224,-9.288 0.864,-2.4 2.016,-4.152 3.456,-5.256 1.488,-1.104 3.192,-1.656 5.112,-1.656 z m 26.33794,-9 z m 10.584,0 v 46.08 l 5.04,-5.04 h -15.12 v 9.36 h 21.74401 v -50.4 z"
       style="display:inline;fill:#ffffff;fill-opacity:1;fill-rule:nonzero;stroke:none"
       id="path88" />
    <path
       d="m 815,201 h 150.4645 v 4 H 815 Z"
       style="fill:#ff8170;fill-opacity:1;fill-rule:nonzero;stroke:none;stroke-width:1.01867"
       id="path98" />
    <path
       d="M 714,351.52231 H 874.48618 V 355 H 714 Z"
       style="fill:#ffd500;fill-opacity:0.768627;fill-rule:nonzero;stroke:none;stroke-width:0.942724"
       id="path102" />
    <path
       d="m 634,501 h 148.85915 v 4 H 634 Z"
       style="display:inline;fill:#2cd997;fill-opacity:1;fill-rule:nonzero;stroke:none;stroke-width:0.946965"
       id="path106" />
    <text
       xml:space="preserve"
       transform="scale(1,-1)"
       style="font-variant:normal;font-weight:normal;font-size:64px;font-family:Arial;-inkscape-font-specification:Arial;writing-mode:lr-tb;fill:#000000;fill-opacity:1;fill-rule:nonzero;stroke:none"
       id="text116"
       x="1144"
       y="-180.875"><tspan
         x="1144 1177.217 1212.1215 1247.026 1261.9305"
         y="-180.875"
         sodipodi:role="line"
         id="tspan114"
         style="font-style:normal;font-variant:normal;font-weight:600;font-stretch:normal;font-family:Lato;-inkscape-font-specification:'Lato Semi-Bold'">Tools</tspan></text>
    <text
       xml:space="preserve"
       transform="scale(1,-1)"
       style="font-variant:normal;font-weight:normal;font-size:64px;font-family:Arial;-inkscape-font-specification:Arial;writing-mode:lr-tb;fill:#000000;fill-opacity:1;fill-rule:nonzero;stroke:none"
       id="text126"
       x="1214.488"
       y="-330.875"><tspan
         x="1214.488 1253.9551 1274.3595 1309.264 1341.2936 1374.1981 1405.7275 1437.2571 1470.1616"
         y="-330.875"
         sodipodi:role="line"
         id="tspan124"
         style="font-style:normal;font-variant:normal;font-weight:600;font-stretch:normal;font-family:Lato;-inkscape-font-specification:'Lato Semi-Bold'">Processes</tspan></text>
    <text
       xml:space="preserve"
       transform="scale(1,-1)"
       style="font-variant:normal;font-weight:normal;font-size:64px;font-family:Arial;-inkscape-font-specification:Arial;writing-mode:lr-tb;fill:#000000;fill-opacity:1;fill-rule:nonzero;stroke:none"
       id="text136"
       x="1285.389"
       y="-480.875"><tspan
         x="1285.389 1324.4186 1357.323 1392.2275 1426.8196 1441.7241"
         y="-480.875"
         sodipodi:role="line"
         id="tspan134"
         style="font-style:normal;font-variant:normal;font-weight:600;font-stretch:normal;font-family:Lato;-inkscape-font-specification:'Lato Semi-Bold'">People</tspan></text>
  </g>
</svg>
